<!DOCTYPE svg PUBLIC "-//W3C//DTD SVG 20010904//EN" "http://www.w3.org/TR/2001/REC-SVG-20010904/DTD/svg10.dtd">
<svg version="1.0" xmlns="http://www.w3.org/2000/svg" width="450px" height="450px" viewBox="0 0 4500 4500" preserveAspectRatio="xMidYMid meet">
<g id="layer101" fill="#1d1d1d" stroke="none">
 <path d="M0 2250 l0 -2250 2250 0 2250 0 0 2250 0 2250 -2250 0 -2250 0 0 -2250z"/>
 </g>
<g id="layer102" fill="#393939" stroke="none">
 <path d="M0 2250 l0 -2250 2250 0 2250 0 0 2250 0 2250 -2250 0 -2250 0 0 -2250z m2517 933 c-4 -3 -10 -3 -14 0 -3 4 0 7 7 7 7 0 10 -3 7 -7z"/>
 </g>
<g id="layer103" fill="#404042" stroke="none">
 <path d="M0 2250 l0 -2250 2250 0 2250 0 0 2250 0 2250 -2250 0 -2250 0 0 -2250z m2725 1000 c4 -6 16 -8 28 -5 19 5 19 4 -3 -9 -14 -9 -32 -15 -40 -15 -10 0 -8 4 5 10 14 6 2 8 -38 4 -39 -4 -56 -2 -52 5 4 6 11 8 16 5 5 -4 17 -1 26 4 23 13 50 14 58 1z m72 -17 c-4 -3 -10 -3 -14 0 -3 4 0 7 7 7 7 0 10 -3 7 -7z m-190 -10 c-4 -3 -10 -3 -14 0 -3 4 0 7 7 7 7 0 10 -3 7 -7z m224 -10 c13 -16 12 -17 -3 -4 -17 13 -22 21 -14 21 2 0 10 -8 17 -17z m-254 0 c-4 -3 -10 -3 -14 0 -3 4 0 7 7 7 7 0 10 -3 7 -7z m100 0 c-4 -3 -10 -3 -14 0 -3 4 0 7 7 7 7 0 10 -3 7 -7z m-121 -15 c4 -7 4 -10 -1 -6 -4 4 -20 1 -36 -7 -42 -22 -50 -17 -9 5 19 11 36 19 37 20 1 0 5 -6 9 -12z m170 0 c4 -7 4 -10 0 -6 -5 4 -19 3 -32 -2 -14 -6 -26 -6 -29 0 -3 5 7 11 22 13 16 2 29 5 30 6 1 0 5 -5 9 -11z m49 -8 c4 -7 14 -6 28 1 l22 11 -22 -21 c-25 -23 -28 -36 -14 -46 6 -3 14 2 19 11 8 14 10 12 10 -10 0 -30 -15 -45 -24 -22 -3 8 -14 13 -25 11 -17 -4 -18 -2 -3 20 15 24 11 51 -6 40 -5 -3 -11 -1 -15 5 -3 5 1 10 9 10 8 0 18 -5 21 -10z m-128 -7 c-4 -3 -10 -3 -14 0 -3 4 0 7 7 7 7 0 10 -3 7 -7z m239 -25 c-10 -6 -23 -5 -33 2 -15 9 -14 10 6 4 20 -5 23 -3 17 11 -6 15 -4 16 9 5 15 -12 15 -14 1 -22z m-346 11 c-12 -9 -11 -10 8 -6 12 3 22 1 22 -4 0 -5 -5 -9 -10 -9 -6 0 -29 -12 -53 -27 -23 -14 -37 -20 -30 -12 11 14 13 19 13 37 0 9 38 30 55 31 6 0 3 -4 -5 -10z m77 4 c-4 -3 -10 -3 -14 0 -3 4 0 7 7 7 7 0 10 -3 7 -7z m-150 -18 c0 -8 -4 -12 -9 -9 -5 3 -15 2 -21 -3 -7 -4 -4 0 6 10 23 21 24 21 24 2z m464 -12 c12 -16 12 -17 -2 -6 -9 7 -20 9 -24 5 -5 -4 -5 -1 -1 6 9 16 11 15 27 -5z m-464 -20 c-4 -3 -10 -3 -14 0 -3 4 0 7 7 7 7 0 10 -3 7 -7z m498 -3 c3 -5 4 -10 1 -10 -3 0 -8 5 -11 10 -3 6 -4 10 -1 10 3 0 8 -4 11 -10z m-577 -13 c-1 -2 4 -12 12 -23 14 -18 14 -18 -5 -2 -14 12 -25 14 -35 8 -8 -5 -10 -10 -4 -10 5 0 19 -7 30 -15 15 -13 13 -13 -15 1 l-34 16 24 18 c20 16 37 20 27 7z m497 3 c3 -5 4 -10 1 -10 -3 0 -8 5 -11 10 -3 6 -4 10 -1 10 3 0 8 -4 11 -10z m45 6 c0 -2 -8 -10 -17 -17 -16 -13 -17 -12 -4 4 13 16 21 21 21 13z m-188 -23 c-6 -3 -9 -10 -6 -15 4 -7 2 -8 -5 -4 -9 6 -9 11 0 22 6 8 15 12 18 8 3 -4 0 -9 -7 -11z m269 -10 l24 -28 -26 23 c-14 12 -29 19 -34 15 -4 -5 -5 -2 -1 5 9 16 9 16 37 -15z m-231 13 c0 -3 -5 -8 -12 -12 -7 -4 -8 -3 -4 4 7 12 16 16 16 8z m155 -5 c-3 -6 3 -14 12 -20 10 -6 13 -11 7 -11 -15 0 -36 25 -27 33 10 10 15 8 8 -2z m-161 -36 c-20 -30 -20 -30 -20 -6 0 11 4 18 7 15 4 -2 10 0 14 6 3 5 8 10 11 10 2 0 -3 -11 -12 -25z m232 3 c19 -23 19 -23 -2 -5 -11 9 -24 14 -29 10 -4 -5 -5 -2 -1 5 9 16 10 16 32 -10z m-277 -2 c10 -12 8 -13 -8 -9 -12 3 -21 9 -21 14 0 14 16 11 29 -5z m-421 -6 c-20 -12 -17 -45 5 -44 18 2 12 -22 -8 -30 -9 -3 -12 0 -8 10 3 7 0 14 -6 14 -10 0 -15 -13 -13 -31 1 -4 -11 -17 -26 -30 -26 -23 -26 -23 -7 -1 22 27 27 49 13 58 -13 8 -59 -36 -51 -49 3 -6 1 -7 -6 -3 -8 5 -3 17 16 41 31 37 55 52 46 29 -3 -7 0 -14 6 -14 6 0 12 5 12 10 3 20 4 25 12 38 5 6 14 12 20 12 7 0 5 -5 -5 -10z m62 -15 c-7 -8 -17 -15 -23 -15 -6 0 -2 7 9 15 25 19 30 19 14 0z m615 5 c3 -5 4 -10 1 -10 -3 0 -8 5 -11 10 -3 6 -4 10 -1 10 3 0 8 -4 11 -10z m60 1 c3 -5 1 -12 -5 -16 -5 -3 -10 1 -10 9 0 18 6 21 15 7z m-351 -16 c-7 -16 -24 -21 -24 -6 0 8 7 13 27 20 1 1 0 -6 -3 -14z m44 -13 c14 10 15 10 5 -2 -18 -20 -43 -22 -35 -2 4 11 7 12 10 4 3 -10 7 -10 20 0z m-43 -32 c3 -5 4 -10 1 -10 -3 0 -8 5 -11 10 -3 6 -4 10 -1 10 3 0 8 -4 11 -10z m-455 -14 c0 -3 -5 -8 -12 -12 -7 -4 -8 -3 -4 4 7 12 16 16 16 8z m410 0 c0 -3 -5 -8 -12 -12 -7 -4 -8 -3 -4 4 7 12 16 16 16 8z m326 -24 c-17 -16 -18 -16 -5 5 7 12 15 20 18 17 3 -2 -3 -12 -13 -22z m64 9 c0 -5 -9 -19 -21 -32 l-21 -24 15 24 c9 13 13 30 10 39 -4 10 -2 13 5 8 7 -4 12 -11 12 -15z m-352 -9 c12 10 12 7 -2 -14 -21 -32 -22 -32 -32 -16 -5 7 -3 8 6 3 9 -5 11 -1 6 16 -3 13 -3 18 0 11 5 -10 9 -10 22 0z m-63 -19 c-2 -10 -4 -19 -4 -21 -1 -2 -6 0 -11 3 -8 5 -7 11 1 21 15 18 18 18 14 -3z m-441 -5 c-3 -5 -9 -6 -14 -3 -5 3 -18 -2 -29 -11 -19 -16 -19 -18 -3 -30 15 -11 22 -8 50 23 17 20 32 32 32 25 0 -6 -8 -16 -17 -21 -10 -6 -14 -11 -9 -11 4 0 -2 -8 -15 -19 -20 -16 -26 -17 -44 -5 -12 8 -26 11 -31 7 -5 -5 0 3 11 17 11 14 24 28 29 32 13 9 46 6 40 -4z m799 -3 c-3 -9 -8 -14 -10 -11 -3 3 -2 9 2 15 9 16 15 13 8 -4z m-23 1 c0 -2 -8 -10 -17 -17 -16 -13 -17 -12 -4 4 13 16 21 21 21 13z m-327 -63 c-14 -18 -26 -33 -27 -33 0 0 -2 12 -3 27 0 16 2 21 7 13 5 -8 10 -9 14 -2 4 6 -1 15 -11 20 -13 8 -10 10 14 9 l30 -2 -24 -32z m350 10 c-18 -28 -28 -31 -14 -4 6 10 8 20 6 23 -3 3 1 5 9 5 12 0 12 -4 -1 -24z m-396 0 c-4 -3 -7 0 -7 7 0 7 3 10 7 7 3 -4 3 -10 0 -14z m-444 -23 c10 -12 9 -12 -3 -3 -8 5 -25 9 -37 8 -12 -1 -20 2 -17 7 7 11 42 4 57 -12z m419 -3 c-7 -8 -8 -18 -4 -22 4 -5 1 -5 -5 -1 -8 4 -13 2 -13 -6 0 -10 -3 -9 -9 1 -8 12 -12 13 -25 1 -14 -11 -16 -10 -10 4 4 11 14 16 26 13 11 -3 22 2 29 15 6 11 13 17 16 14 3 -3 1 -12 -5 -19z m352 9 c-3 -7 2 -20 10 -29 21 -20 20 -23 -8 -53 -17 -19 -26 -23 -31 -14 -5 8 -4 11 3 6 11 -7 32 22 32 45 0 8 -5 8 -17 -2 -17 -13 -17 -13 -3 5 12 15 12 20 2 24 -10 3 -10 7 -1 18 15 18 20 18 13 0z m-854 -26 c-6 -11 -13 -20 -16 -20 -2 0 0 9 6 20 6 11 13 20 16 20 2 0 0 -9 -6 -20z m375 10 c16 -7 14 -9 -15 -9 -19 -1 -46 -4 -60 -7 -22 -4 -21 -3 5 10 35 17 43 18 70 6z m50 0 c3 -5 4 -10 1 -10 -3 0 -8 5 -11 10 -3 6 -4 10 -1 10 3 0 8 -4 11 -10z m-363 -9 c-8 -5 -13 -11 -13 -15 2 -17 -2 -23 -33 -48 -24 -19 -37 -24 -42 -16 -4 6 -3 8 4 4 12 -7 54 42 46 55 -3 5 3 6 13 2 15 -6 16 -4 6 8 -10 12 -8 15 10 16 15 2 18 0 9 -6z m768 -5 c0 -2 -8 -10 -17 -17 -16 -13 -17 -12 -4 4 13 16 21 21 21 13z m-565 -38 c5 4 5 1 1 -6 -6 -10 -1 -11 21 -7 15 3 21 2 13 -1 -8 -4 -23 -11 -34 -16 -13 -7 -16 -7 -12 1 4 6 1 14 -7 17 -7 2 -14 12 -14 21 0 14 1 14 12 -1 7 -8 16 -12 20 -8z m-48 -3 c0 -8 -9 -17 -19 -21 -10 -3 -16 -10 -13 -15 4 -5 13 -5 24 1 19 10 34 3 25 -11 -2 -4 -11 -6 -19 -2 -9 3 -15 -1 -15 -8 0 -9 -5 -7 -12 5 -11 19 -11 19 -24 1 -8 -10 -14 -15 -14 -10 0 6 57 71 66 75 0 0 1 -7 1 -15z m132 -6 c-15 -9 -32 -2 -24 11 3 5 13 6 21 3 12 -4 13 -8 3 -14z m130 -13 c29 -19 58 -33 65 -32 6 2 7 1 3 -2 -4 -2 -2 -11 5 -20 12 -14 11 -14 -11 -1 -14 8 -34 22 -45 32 -12 10 -37 27 -56 37 -19 11 -30 19 -25 20 6 0 35 -15 64 -34z m56 13 c-4 -5 -12 -9 -18 -8 -9 0 -8 2 1 6 6 2 9 10 6 15 -4 7 -2 8 5 4 6 -4 9 -12 6 -17z m-535 7 c0 -3 -5 -8 -12 -12 -7 -4 -8 -3 -4 4 7 12 16 16 16 8z m806 -8 c5 -7 3 -8 -6 -3 -9 6 -10 1 -5 -16 4 -17 3 -20 -3 -10 -8 11 -12 10 -21 -5 -6 -11 -11 -15 -11 -11 0 8 30 57 36 57 1 0 6 -5 10 -12z m-850 -10 c5 -7 3 -8 -6 -3 -9 6 -12 4 -8 -7 4 -8 0 -15 -7 -15 -10 0 -11 5 -4 19 11 21 15 22 25 6z m669 -44 c12 -11 28 -20 36 -19 7 1 23 -1 34 -6 17 -7 16 -8 -7 -8 -16 -1 -28 -6 -28 -13 0 -6 -6 -4 -13 7 -9 12 -19 15 -28 10 -11 -7 -11 -5 1 10 14 17 13 18 -3 12 -11 -4 -16 -3 -12 3 6 10 -9 15 -30 10 -5 -1 -7 2 -3 6 4 4 2 14 -5 22 -11 13 -9 14 13 1 14 -8 34 -23 45 -35z m-655 4 c-1 -7 -15 -29 -33 -48 -18 -19 -29 -31 -24 -26 16 21 6 28 -14 10 -22 -19 -22 -19 -11 2 6 11 18 27 27 34 13 11 15 10 9 -6 -7 -19 -7 -19 14 0 12 11 22 25 22 33 0 7 2 13 5 13 3 0 5 -6 5 -12z m860 8 c0 -3 -5 -8 -12 -12 -7 -4 -8 -3 -4 4 7 12 16 16 16 8z m-948 -49 c-30 -31 -43 -55 -23 -42 5 3 13 0 17 -6 5 -8 3 -9 -6 -4 -8 5 -11 3 -8 -6 3 -8 11 -13 17 -11 15 3 14 -3 -5 -18 -8 -8 -14 -9 -12 -4 1 5 -4 20 -11 32 -11 21 -10 27 6 45 11 12 26 29 34 38 8 10 16 15 18 13 3 -2 -10 -19 -27 -37z m901 16 c10 -2 15 1 12 7 -3 5 -4 10 -1 10 3 0 7 -4 11 -9 7 -12 -35 -52 -47 -45 -4 3 -8 0 -8 -5 0 -6 -5 -11 -11 -11 -5 0 -7 5 -4 10 3 6 -2 10 -12 11 -16 0 -16 1 2 8 11 5 25 5 31 0 11 -9 24 -2 24 13 0 5 -4 7 -9 3 -5 -3 -12 -1 -16 5 -4 6 -11 7 -17 4 -7 -4 -8 -2 -4 5 4 6 13 8 19 4 7 -4 20 -9 30 -10z m-628 -2 c3 -5 0 -13 -6 -17 -7 -4 -9 -3 -5 4 3 5 0 13 -6 15 -9 4 -10 6 -1 6 6 1 14 -3 18 -8z m33 -21 c-25 -34 -24 -34 -34 -17 -4 6 -4 9 1 5 4 -4 16 4 27 17 28 35 33 31 6 -5z m397 10 c3 -5 4 -10 1 -10 -3 0 -8 5 -11 10 -3 6 -4 10 -1 10 3 0 8 -4 11 -10z m-464 -27 c-8 -15 -10 -15 -11 -2 0 17 10 32 18 25 2 -3 -1 -13 -7 -23z m513 6 c-6 -10 23 -19 59 -19 23 0 28 -3 19 -12 -8 -8 -22 -7 -56 6 -51 19 -64 32 -36 32 10 0 17 -3 14 -7z m63 -6 c-4 -3 -10 -3 -14 0 -3 4 0 7 7 7 7 0 10 -3 7 -7z m-610 -37 c-12 -18 -13 -26 -4 -37 10 -11 9 -11 -5 0 -16 12 -16 15 -1 37 8 13 18 24 20 24 3 0 -2 -11 -10 -24z m68 15 c3 -5 2 -12 -3 -15 -5 -3 -9 1 -9 9 0 17 3 19 12 6z m-30 -11 c3 -5 4 -10 1 -10 -3 0 -8 5 -11 10 -3 6 -4 10 -1 10 3 0 8 -4 11 -10z m-299 -19 c0 -11 -3 -18 -7 -15 -12 7 -30 -23 -23 -39 3 -8 1 -17 -3 -20 -16 -10 -8 38 11 66 22 32 22 32 22 8z m309 -3 c5 4 5 1 1 -6 -6 -10 -11 -10 -22 -1 -8 6 -14 14 -14 16 0 3 6 0 13 -6 8 -6 18 -7 22 -3z m-89 -43 c-18 -27 -21 -39 -7 -30 5 3 13 0 17 -6 4 -7 15 -1 31 17 l25 29 -22 -33 c-18 -26 -25 -31 -36 -21 -11 9 -14 8 -15 -2 0 -11 -2 -11 -6 -1 -4 10 -10 9 -25 -5 -12 -10 -6 3 13 30 34 48 54 66 25 22z m-186 11 c0 -3 -4 -8 -10 -11 -5 -3 -10 -1 -10 4 0 6 5 11 10 11 6 0 10 -2 10 -4z m-20 -31 c0 -2 -6 -8 -13 -14 -10 -8 -14 -7 -14 2 0 8 6 14 14 14 7 0 13 -1 13 -2z m-92 -40 c-6 -14 -15 -25 -20 -25 -5 0 -1 11 8 25 9 14 18 25 20 25 2 0 -2 -11 -8 -25z m62 1 c0 -3 -5 -8 -12 -12 -7 -4 -8 -3 -4 4 7 12 16 16 16 8z m250 -12 c0 -8 -19 -13 -24 -6 -3 5 1 9 9 9 8 0 15 -2 15 -3z m-295 -52 c-17 -15 -18 -15 -6 0 7 9 9 23 5 30 -6 10 -4 11 7 0 11 -10 10 -15 -6 -30z m-60 -1 c-8 -17 -19 -33 -25 -36 -5 -3 -1 10 11 29 25 43 36 48 14 7z m266 15 c-6 -7 -10 -20 -8 -27 2 -8 2 -10 -1 -6 -2 5 -13 0 -25 -10 -14 -12 -12 -6 7 20 16 20 31 37 33 37 3 0 0 -6 -6 -14z m57 -6 c-7 -10 -14 -17 -17 -15 -4 4 18 35 25 35 2 0 -1 -9 -8 -20z m-41 -17 c-4 -3 -7 0 -7 7 0 7 3 10 7 7 3 -4 3 -10 0 -14z m-246 -30 c-5 -10 -17 -27 -26 -38 -16 -19 -17 -19 -3 5 26 46 29 50 34 50 3 0 0 -8 -5 -17z m244 -12 c-9 -8 -36 -10 -30 -2 2 4 11 8 20 8 8 0 13 -3 10 -6z m-73 -13 c-9 -9 -9 -15 1 -27 11 -14 10 -14 -6 -2 -13 10 -15 17 -6 27 6 8 14 14 17 14 3 0 1 -5 -6 -12z m-241 -25 c11 -15 11 -16 -1 -6 -11 10 -16 9 -27 -5 -13 -15 -13 -15 -3 6 13 27 14 27 31 5z m299 13 c0 -3 -5 -8 -12 -12 -7 -4 -8 -3 -4 4 7 12 16 16 16 8z m-80 -20 c0 -3 -5 -8 -12 -12 -7 -4 -8 -3 -4 4 7 12 16 16 16 8z m60 -10 c0 -2 -6 -9 -14 -15 -11 -9 -16 -9 -22 0 -4 7 -3 9 4 5 6 -3 13 -2 17 4 6 10 15 14 15 6z m-266 -18 c4 4 2 -5 -5 -20 -12 -27 -13 -27 -26 -8 -17 24 -8 47 11 31 7 -6 16 -7 20 -3z m186 -8 c0 -5 -5 -10 -11 -10 -5 0 -7 5 -4 10 3 6 8 10 11 10 2 0 4 -4 4 -10z m43 -24 c-5 -7 -9 -5 -11 7 -2 9 -8 14 -14 11 -7 -4 -8 -2 -4 5 6 9 11 9 22 0 7 -6 11 -16 7 -23z m-79 -21 c-9 -14 -18 -25 -21 -25 -5 0 5 18 20 38 17 22 18 13 1 -13z m51 15 c3 -5 4 -10 1 -10 -3 0 -8 5 -11 10 -3 6 -4 10 -1 10 3 0 8 -4 11 -10z m-285 -20 c-6 -11 -13 -20 -16 -20 -2 0 0 9 6 20 6 11 13 20 16 20 2 0 0 -9 -6 -20z m49 6 c9 -11 9 -16 -1 -22 -7 -4 -10 -4 -6 1 4 4 3 14 -3 22 -6 7 -9 13 -6 13 2 0 10 -6 16 -14z m216 -5 c3 -5 2 -12 -3 -15 -5 -3 -9 1 -9 9 0 17 3 19 12 6z m-258 -38 c-4 -3 -7 0 -7 7 0 7 3 10 7 7 3 -4 3 -10 0 -14z m263 2 c-14 -17 -30 -20 -30 -4 0 5 4 8 9 4 5 -3 12 -1 16 5 3 5 9 10 12 10 3 0 0 -7 -7 -15z m-298 -22 c-7 -12 -7 -25 -1 -34 5 -7 9 -18 9 -24 -1 -5 -5 -2 -11 8 -6 9 -15 15 -20 12 -5 -4 -2 10 8 29 9 20 18 34 21 32 2 -2 -1 -13 -6 -23z m219 -1 c-5 -10 -18 -25 -27 -33 -11 -9 -9 -2 6 19 26 35 36 42 21 14z m-161 4 c0 -3 -4 -8 -10 -11 -5 -3 -10 -1 -10 4 0 6 5 11 10 11 6 0 10 -2 10 -4z m199 -15 c8 -14 7 -22 -7 -32 -14 -11 -15 -11 -5 1 8 9 9 19 2 32 -5 10 -7 18 -5 18 3 0 10 -9 15 -19z m-222 -28 c-4 -3 -7 0 -7 7 0 7 3 10 7 7 3 -4 3 -10 0 -14z m203 13 c0 -3 -5 -8 -12 -12 -7 -4 -8 -3 -4 4 7 12 16 16 16 8z m-219 -53 c-12 -20 -14 -14 -5 12 4 9 9 14 11 11 3 -2 0 -13 -6 -23z m154 17 c-4 -6 -1 -19 7 -28 11 -15 11 -15 -3 -5 -9 7 -19 9 -24 5 -4 -4 -2 3 4 16 6 12 14 22 17 22 3 0 2 -5 -1 -10z m52 -18 c-9 -10 -23 -33 -31 -52 -10 -23 -15 -28 -16 -16 0 18 45 86 57 86 3 0 -1 -8 -10 -18z m-263 -18 c3 -8 2 -12 -4 -9 -6 3 -10 1 -10 -6 0 -7 -2 -10 -5 -7 -5 5 4 38 10 38 2 0 6 -7 9 -16z m36 12 c0 -3 -5 -8 -12 -12 -7 -4 -8 -3 -4 4 7 12 16 16 16 8z m3 -31 c-3 -9 -8 -14 -10 -11 -3 3 -2 9 2 15 9 16 15 13 8 -4z m144 -2 c-4 -3 -7 0 -7 7 0 7 3 10 7 7 3 -4 3 -10 0 -14z m-216 -40 c-12 -20 -14 -14 -5 12 4 9 9 14 11 11 3 -2 0 -13 -6 -23z m206 10 c-4 -3 -7 0 -7 7 0 7 3 10 7 7 3 -4 3 -10 0 -14z m-155 -18 c-8 -16 -9 -16 -15 -1 -4 10 -3 15 3 11 6 -3 10 -1 10 6 0 7 3 10 6 6 3 -3 2 -13 -4 -22z m-17 -40 c2 -14 0 -27 -5 -30 -4 -3 -8 11 -7 30 1 39 8 39 12 0z m223 -21 c-1 -16 1 -42 5 -59 6 -24 5 -26 -4 -12 -14 24 -24 138 -10 116 6 -9 10 -29 9 -45z m-271 29 c-4 -3 -7 0 -7 7 0 7 3 10 7 7 3 -4 3 -10 0 -14z m210 -20 c-3 -10 -5 -4 -5 12 0 17 2 24 5 18 2 -7 2 -21 0 -30z m-231 -34 c-8 -19 -13 -25 -12 -14 4 26 17 57 23 52 2 -3 -3 -20 -11 -38z m51 -19 c-3 -21 -17 -40 -17 -22 0 13 11 42 16 42 2 0 3 -9 1 -20z m202 -40 c0 -8 -6 -1 -13 15 -7 17 -11 34 -8 40 6 10 20 -27 21 -55z m-272 -7 c-4 -3 -7 0 -7 7 0 7 3 10 7 7 3 -4 3 -10 0 -14z m50 -10 c-1 -10 -6 -24 -10 -30 -5 -7 -6 -17 -2 -22 3 -5 1 -13 -5 -16 -7 -4 -10 7 -8 33 2 22 6 38 11 35 4 -2 7 1 7 6 0 6 2 11 5 11 3 0 4 -8 2 -17z m310 -54 c1 -10 -5 -20 -14 -23 -13 -5 -14 -4 -3 9 11 13 7 19 -12 17 -3 -1 -12 6 -20 16 -12 15 -11 16 4 4 10 -8 19 -9 22 -3 4 5 2 12 -4 16 -5 3 -10 11 -10 18 0 16 34 -34 37 -54z m-370 34 c-4 -3 -7 0 -7 7 0 7 3 10 7 7 3 -4 3 -10 0 -14z m297 1 c3 -8 2 -12 -4 -9 -6 3 -10 10 -10 16 0 14 7 11 14 -7z m-304 -40 c0 -8 -5 -12 -10 -9 -6 4 -8 11 -5 16 9 14 15 11 15 -7z m320 6 c0 -5 -4 -10 -10 -10 -5 0 -10 5 -10 10 0 6 5 10 10 10 6 0 10 -4 10 -10z m85 0 c3 -5 4 -10 1 -10 -3 0 -8 5 -11 10 -3 6 -4 10 -1 10 3 0 8 -4 11 -10z m53 -37 c15 -15 19 -21 10 -14 -13 10 -22 10 -39 0 -22 -11 -22 -12 -4 -25 27 -20 9 -17 -22 3 -25 17 -26 16 -55 -18 -16 -19 -23 -23 -14 -10 12 20 13 28 3 40 -10 14 -10 14 5 3 12 -9 18 -10 23 -2 4 6 14 9 22 6 24 -10 36 5 16 20 -16 13 -16 14 0 8 9 -3 17 -1 17 5 0 17 8 13 38 -16z m-475 -73 c-5 -63 -8 -70 -15 -45 -4 17 -5 39 -1 50 6 18 9 39 12 69 1 5 3 7 6 5 2 -3 1 -38 -2 -79z m59 48 c-9 -9 -12 -7 -12 12 0 19 3 21 12 12 9 -9 9 -15 0 -24z m268 3 c-5 -11 -15 -23 -20 -26 -6 -3 -10 -11 -10 -17 0 -6 7 -5 18 3 15 13 16 12 3 -4 -8 -9 -16 -15 -19 -12 -3 3 -12 -1 -21 -8 -8 -6 0 9 19 36 35 49 48 61 30 28z m242 -50 c10 -12 13 -21 8 -21 -18 0 -25 5 -25 17 0 7 -9 19 -20 28 -20 16 -20 16 0 6 11 -5 28 -19 37 -30z m-521 -14 c-8 -8 -11 -3 -11 19 1 25 2 27 11 11 8 -14 8 -22 0 -30z m439 33 c0 -5 -4 -10 -10 -10 -5 0 -10 5 -10 10 0 6 5 10 10 10 6 0 10 -4 10 -10z m17 -25 c0 -8 -4 -12 -9 -9 -5 3 -6 10 -3 15 9 13 12 11 12 -6z m-167 -19 c0 -3 -5 -8 -12 -12 -7 -4 -8 -3 -4 4 7 12 16 16 16 8z m209 -30 c-3 -3 -11 5 -18 17 -13 21 -12 21 5 5 10 -10 16 -20 13 -22z m49 -1 c-3 -3 -9 2 -12 12 -6 14 -5 15 5 6 7 -7 10 -15 7 -18z m-345 -2 c-6 -16 -5 -17 12 -3 18 14 18 14 2 -11 -10 -14 -14 -29 -10 -34 5 -4 3 -5 -4 -1 -7 4 -9 14 -6 24 6 15 5 16 -12 2 -18 -15 -18 -14 -1 13 21 31 28 35 19 10z m67 3 c0 -2 -8 -10 -17 -17 -16 -13 -17 -12 -4 4 13 16 21 21 21 13z m-310 -53 c-11 -17 -11 -17 -6 0 3 10 6 24 7 30 0 9 2 9 5 0 3 -7 0 -20 -6 -30z m547 4 c-1 -19 -7 -34 -14 -34 -8 0 -9 6 -2 18 5 10 9 22 8 26 -2 13 1 23 6 23 3 0 4 -15 2 -33z m48 -7 c-9 -41 -17 -33 -9 9 4 17 9 30 11 27 3 -2 2 -19 -2 -36z m-618 13 c-4 -3 -7 0 -7 7 0 7 3 10 7 7 3 -4 3 -10 0 -14z m303 3 c0 -3 -5 -8 -12 -12 -7 -4 -8 -3 -4 4 7 12 16 16 16 8z m-253 -33 c-4 -3 -7 0 -7 7 0 7 3 10 7 7 3 -4 3 -10 0 -14z m233 3 c0 -3 -5 -8 -12 -12 -7 -4 -8 -3 -4 4 7 12 16 16 16 8z m-46 -28 c-6 -21 -5 -22 12 -8 15 11 16 11 7 0 -7 -7 -21 -14 -32 -15 -18 -1 -18 0 -3 21 21 29 25 30 16 2z m360 6 c3 -8 2 -12 -4 -9 -6 3 -10 10 -10 16 0 14 7 11 14 -7z m-584 -31 c-1 -24 -2 -26 -11 -10 -5 9 -7 22 -4 27 10 17 15 11 15 -17z m53 12 c4 -8 2 -17 -3 -20 -6 -4 -10 3 -10 14 0 25 6 27 13 6z m469 3 c-8 -11 -9 -34 -3 -68 1 -2 15 11 32 30 l30 35 -27 -40 c-37 -53 -47 -64 -39 -44 4 10 2 20 -4 23 -6 4 -7 14 -4 24 4 13 2 13 -10 -3 -8 -11 -13 -24 -10 -30 4 -5 3 -7 -2 -3 -4 4 -20 -9 -36 -30 -22 -29 -25 -40 -16 -52 10 -13 10 -13 -5 -1 -17 12 -16 17 17 61 19 26 35 50 35 54 0 7 42 56 48 56 2 0 0 -6 -6 -12z m33 2 c3 -5 4 -10 1 -10 -3 0 -8 5 -11 10 -3 6 -4 10 -1 10 3 0 8 -4 11 -10z m-378 -17 c-4 -3 -10 -3 -14 0 -3 4 0 7 7 7 7 0 10 -3 7 -7z m-17 -22 c0 -5 -7 -12 -16 -15 -14 -5 -15 -4 -4 9 14 17 20 19 20 6z m54 -3 c-4 -5 -9 -7 -12 -4 -3 3 -12 0 -21 -7 -14 -10 -14 -10 -4 4 13 16 46 23 37 7z m-207 -25 c-4 -3 -7 0 -7 7 0 7 3 10 7 7 3 -4 3 -10 0 -14z m173 -23 c-12 -16 -24 -30 -27 -30 -3 0 0 7 7 15 6 8 8 20 4 26 -4 7 -3 9 4 5 6 -3 13 -2 17 4 3 5 8 10 11 10 3 0 -4 -13 -16 -30z m-41 6 c8 -10 8 -16 -3 -25 -10 -8 -16 -9 -21 -1 -4 6 -3 9 2 8 4 -2 8 2 8 7 0 6 -4 9 -8 7 -5 -1 -6 2 -2 8 8 13 10 13 24 -4z m-54 -6 c3 -5 4 -10 1 -10 -3 0 -8 5 -11 10 -3 6 -4 10 -1 10 3 0 8 -4 11 -10z m-40 -21 c-7 -11 23 -32 35 -24 6 4 9 1 8 -7 -2 -7 2 -12 8 -11 6 1 11 -4 11 -11 0 -18 -37 1 -64 34 -15 19 -18 27 -8 27 8 0 12 -4 10 -8z m60 -9 c3 -5 4 -10 1 -10 -3 0 -8 5 -11 10 -3 6 -4 10 -1 10 3 0 8 -4 11 -10z m389 -15 c-20 -30 -20 -30 -20 -6 0 11 4 18 7 15 4 -2 10 0 14 6 3 5 8 10 11 10 2 0 -3 -11 -12 -25z m-314 -35 c-16 -10 3 -22 23 -14 22 8 29 -12 9 -27 -15 -13 -16 -12 -3 4 15 19 9 22 -20 6 -11 -5 -16 -15 -12 -21 3 -7 -8 -2 -25 11 -18 12 -32 24 -32 26 0 9 34 -3 38 -13 2 -7 8 -10 13 -6 5 3 6 11 2 17 -13 21 -11 36 4 30 11 -4 11 -8 3 -13z m216 -12 c-16 -22 -22 -48 -9 -35 3 4 12 2 19 -4 9 -8 15 -5 23 9 6 11 7 23 3 27 -4 5 -1 5 6 1 7 -4 12 -2 12 5 0 7 3 10 6 6 3 -3 -4 -20 -16 -37 -18 -25 -25 -28 -36 -19 -17 14 -19 -2 -1 -21 9 -11 8 -11 -7 0 -18 14 -19 13 -13 -2 3 -10 1 -20 -6 -24 -7 -4 -9 -4 -5 1 4 4 3 14 -3 22 -9 9 -8 13 0 13 6 0 11 5 11 11 0 5 -4 7 -10 4 -5 -3 -10 -3 -10 0 0 9 40 65 46 65 3 0 -2 -10 -10 -22z m-141 -27 c3 -5 2 -12 -3 -15 -5 -3 -9 1 -9 9 0 17 3 19 12 6z m65 -25 c0 -7 -50 -13 -55 -7 -2 4 10 8 26 9 16 1 29 1 29 -2z m27 -3 c-4 -3 -10 -3 -14 0 -3 4 0 7 7 7 7 0 10 -3 7 -7z m-132 -13 c3 -5 4 -10 1 -10 -3 0 -8 5 -11 10 -3 6 -4 10 -1 10 3 0 8 -4 11 -10z m40 -20 c3 -6 -1 -7 -9 -4 -18 7 -21 14 -7 14 6 0 13 -4 16 -10z m70 -12 c24 -3 27 -6 13 -12 -10 -5 -26 -5 -35 0 -10 4 -21 7 -24 6 -3 0 -6 6 -6 13 0 9 4 11 11 6 6 -5 25 -11 41 -13z"/>
 <path d="M2800 3120 c0 -7 3 -10 7 -7 3 4 3 10 0 14 -4 3 -7 0 -7 -7z"/>
 <path d="M2500 3145 c-14 -16 -10 -18 14 -9 9 3 16 10 16 15 0 14 -16 11 -30 -6z"/>
 <path d="M1710 2301 c0 -5 5 -13 10 -16 6 -3 10 -2 10 4 0 5 -4 13 -10 16 -5 3 -10 2 -10 -4z"/>
 <path d="M1913 1773 c4 -3 10 -3 14 0 3 4 0 7 -7 7 -7 0 -10 -3 -7 -7z"/>
 </g>
<g id="layer104" fill="#474748" stroke="none">
 <path d="M0 2250 l0 -2250 2250 0 2250 0 0 2250 0 2250 -2250 0 -2250 0 0 -2250z m2810 979 c32 -17 64 -37 71 -45 7 -8 32 -26 55 -40 38 -22 42 -28 32 -44 -7 -10 -16 -16 -22 -13 -5 4 -6 1 -1 -7 6 -10 12 -7 26 11 l19 24 19 -25 c11 -13 18 -28 15 -31 -2 -4 1 -9 7 -11 7 -2 13 -19 15 -37 3 -21 0 -30 -7 -25 -8 4 -8 0 0 -15 7 -11 9 -22 6 -22 -21 -5 -32 -4 -45 5 -13 10 -13 9 -1 -6 7 -10 17 -15 22 -12 16 9 9 -10 -12 -36 -20 -25 -20 -25 -9 -1 7 14 8 21 2 17 -18 -11 -31 25 -20 53 5 14 6 36 3 49 -3 14 -2 21 4 18 5 -4 13 -2 16 4 4 6 2 9 -3 8 -6 -2 -9 2 -9 7 1 6 8 9 15 9 18 -2 15 4 -9 17 -13 7 -19 7 -15 1 3 -6 2 -13 -4 -17 -6 -4 -7 -11 -4 -17 4 -5 -4 -5 -17 2 -47 24 -76 60 -48 60 5 0 7 -4 4 -10 -9 -14 8 -13 23 2 15 15 15 28 1 28 -5 0 -7 -5 -3 -12 5 -8 2 -9 -11 -5 -9 4 -23 3 -30 -3 -9 -7 -20 -4 -38 10 l-25 20 -16 -25 c-9 -13 -16 -28 -16 -34 0 -5 -6 -11 -13 -14 -7 -2 -23 -25 -36 -51 -22 -41 -27 -45 -53 -41 -18 4 -28 1 -28 -7 0 -9 -3 -9 -12 0 -9 9 -8 17 2 37 15 28 32 34 28 9 -2 -10 5 -18 16 -20 14 -2 16 0 7 9 -17 17 -13 27 7 21 14 -5 15 -4 2 5 -13 9 -13 11 0 12 8 1 22 1 30 0 9 -2 6 4 -7 14 -26 18 -30 40 -10 48 8 3 22 22 32 42 12 28 19 34 26 24 4 -8 4 -16 -3 -20 -7 -4 -7 -9 0 -13 17 -10 24 11 12 34 -7 13 -7 20 0 20 5 0 10 -4 10 -8 0 -4 10 -8 23 -9 12 0 16 1 9 4 -6 3 -10 9 -7 14 4 5 -2 6 -12 3 -14 -5 -15 -4 -4 4 11 8 9 12 -10 23 -21 11 -23 11 -11 -3 18 -22 -5 -30 -94 -33 -59 -2 -85 -9 -150 -41 -44 -21 -85 -37 -93 -35 -8 1 -10 -2 -5 -10 5 -9 2 -10 -10 -6 -9 4 -15 3 -12 -2 3 -5 -6 -17 -21 -26 -15 -10 -45 -35 -67 -57 -22 -21 -46 -38 -53 -38 -7 0 -22 -13 -35 -30 -12 -16 -27 -30 -32 -30 -6 0 -27 -17 -46 -37 -19 -21 -37 -37 -41 -36 -4 1 -10 -8 -13 -21 -3 -14 -24 -39 -46 -56 -22 -17 -40 -38 -40 -46 0 -8 -4 -14 -9 -14 -6 0 -36 -34 -68 -75 -31 -41 -61 -75 -65 -75 -17 0 -24 -2 -35 -12 -18 -15 -16 3 3 30 18 26 39 30 29 5 -5 -16 -4 -16 7 -3 7 8 20 20 28 27 13 11 13 12 -2 7 -12 -4 -18 -1 -18 7 0 11 -3 11 -10 -1 -5 -8 -10 -11 -10 -6 0 6 -11 -5 -25 -24 -15 -20 -23 -41 -19 -52 4 -13 1 -16 -10 -12 -22 8 -21 11 30 79 24 33 54 75 65 93 12 17 25 32 30 32 14 0 11 -16 -5 -29 -8 -7 -17 -24 -21 -38 -5 -22 -8 -24 -16 -12 -9 12 -10 12 -6 -1 2 -8 10 -15 18 -15 14 -1 59 40 59 53 0 4 -7 -2 -15 -12 -8 -11 -18 -17 -22 -13 -11 12 28 46 45 40 10 -4 6 3 -7 14 -22 18 -23 22 -10 37 31 39 62 65 70 61 4 -3 10 -1 14 5 11 17 28 11 21 -7 -6 -17 -5 -17 7 -1 8 10 18 14 23 10 4 -4 3 0 -4 10 -14 18 -6 27 21 23 10 -2 16 2 14 8 -2 7 -12 12 -22 12 -33 0 -27 21 16 56 22 19 58 51 78 72 43 42 48 43 72 21 19 -17 22 -2 5 25 -12 18 23 46 38 31 15 -15 30 -12 17 4 -8 10 -8 16 1 23 26 20 37 23 44 12 4 -8 3 -9 -5 -5 -7 5 -10 2 -9 -6 2 -8 -4 -12 -17 -10 -23 4 -20 0 12 -17 20 -10 22 -9 16 5 -5 13 -3 15 8 9 8 -4 11 -5 7 0 -4 4 -2 15 5 23 9 13 9 14 0 8 -7 -4 -13 -4 -13 0 0 23 229 142 244 127 2 -3 13 0 23 6 32 19 82 12 143 -20z m-86 -167 c2 -4 -4 -13 -15 -20 -21 -13 -22 -12 -13 12 7 17 20 21 28 8z m-429 -32 c3 -5 4 -10 1 -10 -3 0 -8 5 -11 10 -3 6 -4 10 -1 10 3 0 8 -4 11 -10z m379 -73 c3 4 13 8 22 9 13 2 13 -1 -2 -24 -9 -15 -23 -33 -32 -39 -9 -7 -13 -13 -8 -13 4 0 -9 -21 -29 -46 -19 -26 -35 -50 -35 -53 0 -4 -14 -15 -30 -24 -33 -20 -59 -14 -40 8 8 10 8 15 -1 20 -8 6 -7 10 2 17 11 8 11 9 -1 5 -8 -2 -24 0 -35 5 -13 6 -9 0 9 -16 25 -23 27 -26 11 -32 -10 -4 -31 -2 -48 4 -23 9 -32 8 -44 -4 -8 -8 -18 -12 -23 -9 -11 7 -70 -15 -70 -26 0 -14 -30 -10 -36 5 -3 8 -13 12 -25 9 -10 -3 -16 -9 -14 -14 3 -4 12 -6 19 -3 8 3 17 0 22 -7 4 -7 2 -15 -4 -17 -7 -2 -12 -10 -12 -18 0 -8 -4 -14 -9 -14 -5 0 -23 -22 -41 -50 -30 -47 -50 -63 -50 -39 0 5 4 7 10 4 6 -3 7 1 4 10 -4 9 -3 15 2 14 21 -4 26 2 14 16 -8 10 -9 15 -2 15 7 0 9 7 5 17 -4 11 -3 14 6 9 7 -5 10 -15 6 -25 -7 -19 0 -11 39 42 15 20 23 37 19 37 -5 0 -17 -14 -27 -31 -14 -24 -21 -28 -32 -18 -15 12 -22 2 -28 -38 -2 -11 -10 -17 -22 -15 -14 2 -16 1 -5 -6 10 -8 11 -14 1 -32 -7 -13 -8 -20 -2 -16 17 10 23 -11 7 -24 -8 -7 -15 -18 -15 -25 0 -7 -7 -16 -16 -19 -10 -4 -13 -2 -8 6 4 7 3 8 -4 4 -14 -8 -31 24 -23 44 3 9 25 40 49 71 23 31 42 62 42 68 0 7 6 11 14 8 10 -4 12 0 9 13 -4 14 2 23 21 31 14 7 26 18 26 25 0 6 12 15 28 20 15 4 29 8 32 9 3 1 21 8 40 16 31 14 58 16 148 10 15 -1 26 -9 30 -23 5 -21 5 -21 14 3 9 23 10 23 24 5 11 -16 14 -17 14 -4 0 21 -24 30 -40 15 -10 -10 -10 -7 -1 11 6 12 16 22 21 22 5 0 12 9 15 20 4 11 10 18 15 15 4 -3 11 2 14 11 4 10 2 13 -7 8 -9 -6 -9 -4 1 8 14 18 40 18 51 0 4 -7 11 -4 20 11 12 19 12 20 0 10 -11 -9 -18 -8 -31 1 -10 7 -15 16 -11 19 3 4 11 2 18 -3 7 -5 15 -7 19 -3z m301 -34 c14 -36 15 -61 1 -72 -11 -9 -13 -6 -11 14 2 14 0 23 -5 20 -4 -2 -6 -18 -4 -35 2 -16 -1 -30 -6 -30 -6 0 -10 -9 -10 -20 0 -27 -16 -25 -23 2 -4 13 0 33 9 46 8 12 14 28 13 35 -2 18 12 57 21 57 4 0 11 -8 15 -17z m-66 -84 c-12 -18 -24 -28 -26 -22 -4 11 39 65 45 58 3 -2 -6 -18 -19 -36z m-804 21 c3 -5 1 -10 -5 -10 -7 0 -9 -7 -6 -16 3 -9 2 -12 -5 -9 -5 4 -16 1 -24 -5 -21 -17 -19 1 3 28 19 24 28 27 37 12z m808 -72 c4 -14 -5 -37 -26 -67 -37 -53 -49 -64 -96 -87 -31 -15 -36 -15 -77 1 -26 10 -41 21 -38 27 4 7 2 8 -5 4 -13 -9 -43 12 -36 24 3 5 -5 6 -17 2 -17 -4 -20 -2 -15 11 3 9 1 19 -5 23 -7 4 -8 3 -4 -4 4 -7 1 -12 -9 -12 -11 0 -15 5 -11 16 3 8 2 12 -4 9 -6 -3 -15 -3 -21 1 -16 9 40 44 60 36 9 -3 20 -11 24 -19 4 -7 15 -13 24 -13 10 0 13 -6 9 -16 -3 -8 -2 -13 3 -10 5 3 26 -1 46 -10 24 -10 47 -13 64 -8 14 4 30 6 35 5 5 -1 6 5 3 12 -3 8 8 28 23 46 16 17 27 31 24 31 -15 0 8 16 24 17 13 1 22 -6 25 -19z m-1028 -272 c-8 -12 -27 -38 -40 -59 -15 -22 -30 -35 -37 -31 -7 4 -8 3 -4 -4 4 -6 -11 -42 -34 -79 -22 -37 -40 -72 -40 -77 0 -6 -7 -2 -15 9 -14 18 -16 18 -32 2 -11 -11 -13 -17 -5 -17 7 0 12 6 12 13 1 7 6 5 14 -6 12 -15 10 -25 -11 -68 -16 -31 -28 -46 -33 -39 -4 6 -11 12 -16 12 -5 -1 -8 7 -6 16 2 14 1 15 -7 2 -7 -11 -5 -20 10 -36 17 -18 18 -25 8 -47 -7 -15 -15 -25 -18 -23 -3 2 -7 -10 -8 -27 -1 -17 -7 -35 -13 -41 -5 -5 -10 -20 -10 -32 0 -29 -17 -40 -23 -17 -3 10 -3 -1 0 -23 3 -25 1 -44 -6 -48 -6 -4 -11 -2 -11 5 0 7 -3 9 -6 6 -4 -4 -1 -13 5 -21 7 -9 8 -17 2 -20 -5 -3 -14 8 -20 26 -13 38 -14 41 -1 33 6 -3 7 1 4 10 -10 24 -17 10 -19 -36 -1 -22 0 -36 4 -30 4 6 11 3 19 -9 6 -10 8 -21 3 -24 -4 -3 -8 -22 -9 -42 -1 -20 -5 -41 -10 -48 -20 -25 -18 -281 2 -268 5 3 7 -2 3 -11 -3 -9 -1 -19 5 -23 7 -5 8 -2 3 7 -6 11 -5 12 6 2 15 -15 43 -18 35 -4 -3 4 1 16 8 26 9 13 15 15 20 7 4 -7 3 -12 -2 -12 -5 0 -9 -10 -8 -22 1 -18 -4 -22 -19 -20 -18 3 -18 2 3 -13 12 -9 19 -22 16 -28 -4 -7 -3 -9 1 -4 14 12 47 -24 34 -39 -7 -8 -7 -14 1 -19 6 -4 9 -1 8 7 -2 8 6 12 22 11 23 -3 24 -2 5 8 -11 7 -33 23 -48 38 l-28 25 23 18 c17 14 18 17 5 12 -17 -6 -18 -5 -6 14 8 13 16 17 20 11 5 -8 9 -8 13 0 4 6 2 11 -4 11 -7 0 -10 7 -6 18 6 15 5 15 -8 -1 -16 -20 -32 -6 -19 17 22 37 74 86 86 80 9 -5 9 -4 0 6 -10 10 -4 25 28 69 43 61 84 113 75 94 -3 -6 0 -13 6 -16 10 -3 8 -10 -6 -26 -11 -11 -16 -24 -13 -28 4 -3 1 -13 -6 -22 -10 -14 -10 -14 5 -3 9 8 14 20 11 28 -3 9 1 14 13 14 9 0 14 3 11 6 -3 4 -2 16 4 27 9 15 8 18 -2 12 -9 -6 -11 -2 -7 13 4 12 3 20 -2 17 -12 -7 -33 23 -24 36 5 9 11 7 21 -6 7 -11 13 -14 13 -8 0 5 -10 18 -22 29 -14 12 -19 14 -13 4 5 -10 5 -12 -2 -5 -30 29 -56 185 -32 185 10 0 10 3 1 12 -6 6 -8 16 -3 22 4 6 14 27 21 46 8 19 29 53 47 74 18 22 33 46 33 53 0 7 5 13 10 13 14 0 13 -13 -2 -30 -11 -12 -10 -12 5 -1 20 16 23 -1 3 -18 -11 -9 -15 -9 -19 1 -3 7 -4 2 -2 -12 2 -14 4 -29 4 -33 1 -5 6 -5 12 -1 7 4 8 9 1 13 -6 4 -5 11 3 18 10 10 14 9 19 -2 2 -7 -2 -19 -10 -25 -8 -7 -14 -19 -14 -26 0 -8 -4 -14 -10 -14 -5 0 -10 -5 -10 -12 0 -6 -7 -19 -16 -29 -20 -22 -24 -111 -8 -169 8 -28 26 -56 46 -73 18 -16 27 -26 21 -22 -7 3 -13 2 -13 -3 0 -6 7 -13 16 -16 12 -5 14 -10 5 -20 -6 -7 -7 -16 -3 -21 4 -4 -3 -4 -15 -1 -18 6 -27 0 -47 -31 -26 -39 -72 -96 -62 -77 3 6 -1 11 -9 11 -11 0 -12 -4 -3 -14 13 -16 -7 -64 -26 -62 -24 3 -36 -2 -36 -12 0 -8 6 -7 17 2 14 12 14 9 -3 -21 -10 -19 -20 -37 -21 -39 -1 -1 -7 0 -13 4 -8 5 -6 11 6 19 13 10 14 17 7 31 -7 12 -13 14 -17 6 -4 -6 -2 -11 3 -11 6 0 11 -5 11 -11 0 -6 -7 -9 -15 -6 -17 7 -30 -9 -15 -18 6 -4 7 -11 4 -17 -4 -7 -2 -8 4 -4 23 14 12 -13 -18 -46 -36 -39 -37 -46 -7 -57 12 -5 31 -18 41 -30 11 -11 25 -21 31 -21 7 0 18 -7 25 -15 7 -8 27 -15 46 -15 26 0 39 7 60 36 l28 36 16 -23 c14 -17 19 -19 25 -8 5 8 4 10 0 6 -5 -4 -14 3 -21 15 -10 19 -9 27 8 51 16 22 23 25 34 16 16 -13 19 -33 4 -24 -5 3 -10 1 -10 -5 0 -7 7 -10 15 -6 9 3 15 0 15 -10 0 -12 -6 -15 -21 -11 -16 4 -18 3 -9 -7 7 -10 6 -17 -5 -26 -8 -7 -15 -18 -15 -25 0 -7 -6 -15 -14 -18 -10 -4 -13 1 -10 16 4 20 4 20 -6 -1 -5 -13 -7 -29 -3 -35 4 -7 -2 -5 -12 3 -17 14 -18 13 -12 -2 5 -13 -3 -22 -29 -34 -38 -18 -82 -14 -123 13 -24 15 -24 17 -6 23 27 10 52 1 33 -11 -13 -9 -12 -9 20 -9 4 0 7 8 7 18 -1 9 -7 16 -14 14 -8 -2 -23 5 -35 15 -16 14 -18 14 -8 2 10 -14 9 -17 -9 -22 -15 -4 -37 7 -78 39 -31 24 -60 44 -64 44 -15 0 -62 63 -78 105 -16 42 -18 190 -4 260 3 17 8 39 10 50 2 11 4 22 4 25 1 3 6 -2 12 -10 8 -11 9 -6 5 20 -4 26 -3 31 4 20 8 -11 9 -5 4 23 -4 24 -2 43 6 52 7 8 10 15 6 15 -3 0 3 17 14 37 11 21 20 45 20 53 0 9 4 20 8 26 5 5 15 25 22 44 21 56 91 201 117 243 18 28 29 37 41 32 13 -5 14 -3 5 6 -12 12 -9 19 45 101 19 30 28 36 41 28 10 -5 23 -5 32 1 7 5 10 9 6 9 -15 0 2 17 18 17 14 0 14 -2 0 -21z m217 -4 c16 -27 16 -30 -5 -60 -12 -17 -26 -32 -31 -32 -4 0 4 17 20 38 15 20 20 31 11 23 -9 -7 -17 -10 -17 -5 0 5 -7 -4 -15 -19 -8 -15 -12 -34 -9 -42 8 -20 -33 -75 -50 -69 -8 3 -17 1 -20 -5 -9 -13 -36 -3 -36 14 0 8 9 16 20 20 11 3 19 9 19 13 -2 17 15 52 24 49 15 -5 28 -45 17 -52 -6 -4 -10 3 -10 15 0 12 -4 19 -10 15 -5 -3 -7 -12 -3 -20 3 -8 0 -15 -6 -15 -6 0 -11 -5 -11 -11 0 -8 5 -8 15 1 8 7 15 9 15 5 0 -4 6 -2 14 4 14 12 10 61 -5 61 -5 0 -9 5 -9 11 0 6 7 9 15 6 8 -4 17 -1 21 5 4 7 3 8 -4 4 -7 -4 -12 -2 -12 3 0 6 5 11 10 11 6 0 10 3 9 8 -2 13 13 52 20 52 4 0 14 -13 23 -28z m-131 -191 c23 -18 23 -20 6 -38 -9 -11 -17 -25 -17 -31 0 -7 -4 -12 -10 -12 -14 0 -12 22 5 44 8 10 12 23 9 27 -6 10 -34 0 -34 -13 0 -5 4 -6 10 -3 6 3 7 -1 3 -10 -4 -11 -8 -13 -13 -6 -4 8 -12 5 -24 -8 -13 -14 -14 -21 -5 -27 7 -4 10 -3 5 4 -3 6 -1 14 5 17 13 9 16 6 25 -29 6 -24 4 -28 -8 -23 -9 3 -15 0 -14 -6 0 -7 -3 -12 -9 -12 -5 0 -9 4 -7 8 1 4 -3 17 -9 28 -8 17 -6 27 15 54 14 19 26 38 26 44 0 16 15 13 41 -8z m39 -1 c0 -5 -4 -10 -10 -10 -5 0 -10 5 -10 10 0 6 5 10 10 10 6 0 10 -4 10 -10z m-80 -530 c0 -5 -4 -10 -10 -10 -5 0 -10 5 -10 10 0 6 5 10 10 10 6 0 10 -4 10 -10z m33 -24 c6 -15 -1 -26 -15 -26 -5 0 -7 4 -3 9 3 5 1 12 -4 15 -5 3 -11 -2 -13 -12 -6 -20 18 -26 39 -10 14 11 36 1 28 -12 -3 -4 4 -6 15 -3 22 6 28 -12 8 -21 -7 -3 -3 -3 9 0 18 4 25 -1 35 -23 24 -59 14 -154 -14 -137 -6 4 -8 -1 -4 -13 7 -21 -29 -67 -44 -58 -6 3 -7 0 -4 -8 3 -8 0 -18 -7 -23 -8 -5 -10 -3 -4 6 5 8 4 11 -3 7 -5 -4 -8 -16 -5 -27 7 -27 -8 -25 -29 4 -14 20 -15 28 -5 50 15 32 31 34 22 4 l-6 -23 14 23 c7 12 15 20 18 18 3 -3 6 4 6 16 2 20 1 20 -12 2 -24 -32 -16 -7 10 32 32 46 28 90 -11 121 -24 20 -27 25 -14 33 8 5 10 10 5 10 -6 0 -16 -5 -23 -12 -8 -8 -12 -8 -12 -1 0 6 -9 13 -19 16 -22 5 -22 34 0 48 20 13 36 11 42 -5z"/>
 <path d="M2683 3233 c9 -2 23 -2 30 0 6 3 -1 5 -18 5 -16 0 -22 -2 -12 -5z"/>
 <path d="M2752 3231 c-11 -6 -10 -10 4 -15 9 -3 19 -4 22 -1 3 3 -1 5 -9 5 -11 0 -11 2 1 10 8 5 11 10 5 10 -5 0 -16 -4 -23 -9z"/>
 <path d="M2600 3220 c-11 -8 -7 -9 15 -4 37 8 45 14 19 14 -10 0 -26 -5 -34 -10z"/>
 <path d="M2680 3210 c-20 -6 -21 -8 -5 -8 11 0 29 3 40 8 25 11 -1 11 -35 0z"/>
 <path d="M2560 3200 c0 -5 -3 -9 -7 -8 -13 2 -60 -20 -68 -31 -3 -7 0 -8 9 -5 23 9 20 -5 -6 -28 -13 -11 -4 -7 19 9 28 19 37 31 30 36 -8 6 -4 7 8 4 15 -3 21 1 22 14 1 11 0 19 -3 19 -2 0 -4 -4 -4 -10z m-33 -37 c-4 -3 -10 -3 -14 0 -3 4 0 7 7 7 7 0 10 -3 7 -7z"/>
 <path d="M2633 3193 c4 -3 10 -3 14 0 3 4 0 7 -7 7 -7 0 -10 -3 -7 -7z"/>
 <path d="M2875 3160 c4 -6 -6 -8 -22 -6 -15 2 -21 1 -13 -1 8 -3 17 -9 20 -13 3 -5 13 -2 23 5 16 11 16 13 2 19 -9 3 -13 2 -10 -4z"/>
 <path d="M2445 3140 c3 -6 1 -10 -6 -10 -7 0 -10 -3 -6 -6 3 -3 13 -2 22 4 16 8 16 9 1 15 -10 4 -15 3 -11 -3z"/>
 <path d="M2900 3140 c-12 -7 -10 -9 7 -7 12 0 19 5 17 9 -6 10 -6 10 -24 -2z"/>
 <path d="M2765 3130 c-5 -9 -4 -11 3 -6 11 7 17 -6 13 -27 -3 -15 19 4 29 26 10 19 9 20 -2 5 -13 -15 -15 -15 -24 0 -9 13 -12 13 -19 2z"/>
 <path d="M2755 3100 c-3 -5 -2 -17 3 -26 6 -11 11 -13 16 -5 4 6 2 11 -4 11 -7 0 -10 7 -6 15 6 17 0 20 -9 5z"/>
 <path d="M2330 3048 c6 -8 5 -17 -3 -27 -6 -8 3 -4 20 9 18 13 31 26 28 28 -2 3 -11 0 -18 -6 -9 -8 -18 -8 -25 -2 -9 7 -9 7 -2 -2z"/>
 <path d="M3020 3020 c0 -7 3 -10 7 -7 3 4 3 10 0 14 -4 3 -7 0 -7 -7z"/>
 <path d="M2275 3000 c3 -5 8 -10 11 -10 3 0 2 5 -1 10 -3 6 -8 10 -11 10 -3 0 -2 -4 1 -10z"/>
 <path d="M3000 3000 c0 -7 3 -10 7 -7 3 4 3 10 0 14 -4 3 -7 0 -7 -7z"/>
 <path d="M2255 2982 c2 -13 -5 -23 -22 -31 -31 -14 -43 -7 -14 9 12 6 21 16 21 22 0 6 -11 1 -24 -11 -34 -32 -25 -56 13 -36 42 21 54 40 37 55 -13 10 -15 8 -11 -8z"/>
 <path d="M3010 2970 c0 -7 3 -10 7 -7 3 4 3 10 0 14 -4 3 -7 0 -7 -7z"/>
 <path d="M2149 2903 c-21 -25 -22 -26 -1 -9 19 16 22 17 22 3 0 -8 -6 -17 -12 -20 -7 -2 -10 -8 -6 -11 3 -4 14 4 24 19 25 38 4 53 -27 18z"/>
 <path d="M2032 2775 c-15 -18 -1 -20 16 -3 8 8 12 8 12 1 0 -6 -7 -16 -15 -23 -12 -10 -18 -10 -32 1 -17 12 -17 12 -1 -6 17 -18 18 -18 38 0 22 20 27 45 8 45 -7 -1 -19 -7 -26 -15z"/>
 <path d="M1990 2726 c0 -10 4 -15 9 -12 5 4 12 0 14 -6 4 -8 6 -9 6 -2 1 6 -6 17 -14 24 -12 10 -15 9 -15 -4z"/>
 <path d="M2629 2898 c-1 -7 -1 -17 0 -22 1 -5 -5 -6 -13 -3 -11 4 -13 1 -9 -10 4 -11 2 -14 -5 -9 -8 5 -10 2 -6 -9 6 -13 9 -12 22 7 16 23 26 58 17 58 -3 0 -6 -6 -6 -12z"/>
 <path d="M2388 2813 c6 -2 18 -2 25 0 6 3 1 5 -13 5 -14 0 -19 -2 -12 -5z"/>
 <path d="M2345 2800 c-3 -6 1 -7 9 -4 18 7 21 14 7 14 -6 0 -13 -4 -16 -10z"/>
 <path d="M2312 2789 c2 -6 -3 -14 -11 -17 -9 -3 -11 0 -6 8 6 9 4 11 -4 5 -10 -6 -10 -10 1 -21 12 -13 20 -12 52 1 21 9 36 19 33 21 -3 3 -14 1 -25 -5 -25 -13 -35 -14 -27 -2 3 5 1 13 -5 16 -6 4 -9 1 -8 -6z"/>
 <path d="M2230 2719 c0 -5 5 -7 10 -4 6 3 10 8 10 11 0 2 -4 4 -10 4 -5 0 -10 -5 -10 -11z"/>
 <path d="M2140 2600 c0 -7 3 -10 7 -7 3 4 3 10 0 14 -4 3 -7 0 -7 -7z"/>
 <path d="M2117 2570 c-7 -28 17 -45 34 -23 13 16 12 17 -3 4 -18 -14 -22 -10 -19 22 3 23 -5 22 -12 -3z"/>
 <path d="M2949 2903 c-13 -16 -12 -17 4 -4 16 13 21 21 13 21 -2 0 -10 -8 -17 -17z"/>
 <path d="M2893 2778 c8 -23 -18 -44 -30 -24 -7 13 -10 13 -21 -4 -7 -12 -8 -20 -2 -20 5 0 10 5 10 11 0 5 5 7 11 4 6 -4 8 -13 5 -21 -9 -22 1 -16 23 14 14 20 17 32 9 43 -8 11 -9 11 -5 -3z"/>
 <path d="M2591 2754 c0 -11 3 -14 6 -6 3 7 2 16 -1 19 -3 4 -6 -2 -5 -13z"/>
 <path d="M2613 2738 c2 -7 10 -12 16 -10 6 1 11 -3 11 -10 0 -6 3 -8 6 -5 8 8 -14 37 -28 37 -5 0 -8 -6 -5 -12z"/>
 <path d="M2664 2694 c-10 -8 -13 -13 -6 -9 15 8 44 -13 36 -26 -3 -5 -2 -9 3 -10 4 0 18 -2 30 -5 12 -2 32 0 43 4 20 7 18 9 -14 19 -20 6 -34 7 -30 2 9 -16 -5 -10 -25 10 -11 11 -17 22 -13 25 12 13 -5 5 -24 -10z m93 -40 c-3 -3 -12 -4 -19 -1 -8 3 -5 6 6 6 11 1 17 -2 13 -5z"/>
 <path d="M2825 2700 c-4 -6 -11 -8 -16 -5 -5 3 -6 -1 -3 -9 4 -11 0 -13 -18 -9 -13 3 -21 3 -18 0 14 -16 58 -14 73 3 15 17 13 30 -4 30 -4 0 -11 -5 -14 -10z m15 -4 c0 -3 -5 -8 -12 -12 -7 -4 -8 -3 -4 4 7 12 16 16 16 8z"/>
 <path d="M1806 2484 c-4 -9 -4 -19 -1 -22 2 -3 7 3 11 12 4 9 4 19 1 22 -2 3 -7 -3 -11 -12z"/>
 <path d="M1844 2488 c-4 -7 -3 -8 4 -4 7 4 12 9 12 12 0 8 -9 4 -16 -8z"/>
 <path d="M1820 2455 c-7 -9 -8 -15 -2 -15 5 0 12 7 16 15 3 8 4 15 2 15 -2 0 -9 -7 -16 -15z"/>
 <path d="M1774 2442 c4 -7 2 -12 -5 -12 -10 0 -10 -3 -1 -12 15 -15 16 -31 0 -22 -7 4 -8 3 -4 -5 5 -7 -3 -27 -18 -46 -18 -23 -23 -36 -14 -41 6 -4 8 -3 5 3 -4 6 0 16 8 23 22 18 56 80 44 80 -6 0 -9 7 -6 15 4 8 1 17 -5 21 -7 4 -8 3 -4 -4z"/>
 <path d="M1720 2360 c0 -5 5 -10 11 -10 5 0 7 5 4 10 -3 6 -8 10 -11 10 -2 0 -4 -4 -4 -10z"/>
 <path d="M1654 2238 c-4 -7 -3 -8 4 -4 12 7 16 16 8 16 -3 0 -8 -5 -12 -12z"/>
 <path d="M1690 2239 c0 -5 5 -7 10 -4 6 3 10 8 10 11 0 2 -4 4 -10 4 -5 0 -10 -5 -10 -11z"/>
 <path d="M1670 2220 c0 -5 5 -10 11 -10 5 0 7 5 4 10 -3 6 -8 10 -11 10 -2 0 -4 -4 -4 -10z"/>
 <path d="M1660 2190 c0 -7 3 -10 7 -7 3 4 3 10 0 14 -4 3 -7 0 -7 -7z"/>
 <path d="M1824 2158 c-4 -7 -3 -8 4 -4 12 7 16 16 8 16 -3 0 -8 -5 -12 -12z"/>
 <path d="M1617 2140 c3 -12 -1 -22 -11 -26 -9 -3 -13 -10 -10 -16 3 -5 12 -1 20 9 11 14 13 15 14 3 0 -13 1 -13 10 0 5 8 10 20 10 25 0 6 -5 3 -10 -5 -8 -13 -10 -13 -10 2 0 9 -4 19 -9 22 -5 4 -7 -3 -4 -14z"/>
 <path d="M1821 2100 c-12 -17 -18 -30 -14 -30 10 1 46 50 41 56 -3 2 -14 -10 -27 -26z"/>
 <path d="M1786 2093 c-6 -14 -5 -15 5 -6 7 7 10 15 7 18 -3 3 -9 -2 -12 -12z"/>
 <path d="M1580 2080 c0 -7 3 -10 7 -7 3 4 3 10 0 14 -4 3 -7 0 -7 -7z"/>
 <path d="M1777 2063 c-4 -3 -7 -11 -7 -17 0 -6 5 -5 12 2 6 6 9 14 7 17 -3 3 -9 2 -12 -2z"/>
 <path d="M1574 2052 c4 -3 14 -7 22 -8 9 -1 13 0 10 4 -4 3 -14 7 -22 8 -9 1 -13 0 -10 -4z"/>
 <path d="M1800 2040 c0 -7 3 -10 7 -7 3 4 3 10 0 14 -4 3 -7 0 -7 -7z"/>
 <path d="M1570 2020 c0 -7 3 -10 7 -7 3 4 3 10 0 14 -4 3 -7 0 -7 -7z"/>
 <path d="M1590 2020 c0 -7 3 -10 7 -7 3 4 3 10 0 14 -4 3 -7 0 -7 -7z"/>
 <path d="M1786 2017 c3 -10 9 -15 12 -12 3 3 0 11 -7 18 -10 9 -11 8 -5 -6z"/>
 <path d="M1765 1999 c-4 -6 -5 -12 -2 -15 2 -3 7 2 10 11 7 17 1 20 -8 4z"/>
 <path d="M1781 1974 c0 -11 3 -14 6 -6 3 7 2 16 -1 19 -3 4 -6 -2 -5 -13z"/>
 <path d="M1540 1973 c0 -4 5 -15 10 -23 8 -13 10 -13 10 2 0 9 -4 20 -10 23 -5 3 -10 3 -10 -2z"/>
 <path d="M1796 1915 c4 -8 8 -15 10 -15 2 0 4 7 4 15 0 8 -4 15 -10 15 -5 0 -7 -7 -4 -15z"/>
 <path d="M1771 1915 c1 -19 18 -51 18 -35 0 8 -4 22 -9 30 -5 8 -9 11 -9 5z"/>
 <path d="M1810 1887 c0 -14 23 -52 39 -64 11 -8 12 -12 4 -13 -7 0 -13 -5 -13 -10 0 -6 8 -5 20 2 17 11 17 14 4 21 -8 5 -24 23 -35 40 -10 18 -19 28 -19 24z"/>
 <path d="M1524 1838 c-4 -7 -3 -8 4 -4 7 4 12 9 12 12 0 8 -9 4 -16 -8z"/>
 <path d="M1515 1800 c3 -5 8 -10 11 -10 2 0 4 5 4 10 0 6 -5 10 -11 10 -5 0 -7 -4 -4 -10z"/>
 <path d="M1852 1781 c-11 -7 -11 -9 0 -14 9 -3 15 1 15 9 0 8 -1 14 -1 14 -1 0 -7 -4 -14 -9z"/>
 <path d="M1485 1759 c-4 -6 -5 -12 -2 -15 2 -3 7 2 10 11 7 17 1 20 -8 4z"/>
 <path d="M1505 1740 c-4 -17 -5 -34 -2 -36 2 -3 7 10 11 27 3 18 4 34 2 36 -2 3 -7 -10 -11 -27z"/>
 <path d="M1747 1678 c-25 -35 -43 -65 -40 -68 2 -2 8 2 13 10 7 11 10 12 10 2 0 -7 5 -10 11 -6 8 4 7 9 -2 14 -10 7 -10 11 0 24 7 9 17 13 22 10 5 -3 6 3 2 12 -5 13 -3 15 8 9 8 -4 11 -4 6 0 -4 5 0 19 8 32 32 48 5 21 -38 -39z"/>
 <path d="M1470 1700 c0 -11 4 -20 9 -20 5 0 7 9 4 20 -3 11 -7 20 -9 20 -2 0 -4 -9 -4 -20z"/>
 <path d="M1471 1654 c0 -11 3 -14 6 -6 3 7 2 16 -1 19 -3 4 -6 -2 -5 -13z"/>
 <path d="M1468 1615 c-3 -6 0 -15 7 -22 10 -10 14 -9 19 3 3 8 2 13 -3 9 -5 -3 -11 0 -13 7 -3 7 -7 8 -10 3z"/>
 <path d="M1471 1554 c0 -11 3 -14 6 -6 3 7 2 16 -1 19 -3 4 -6 -2 -5 -13z"/>
 <path d="M1490 1560 c0 -7 3 -10 7 -7 3 4 3 10 0 14 -4 3 -7 0 -7 -7z"/>
 <path d="M1500 1530 c0 -7 3 -10 7 -7 3 4 3 10 0 14 -4 3 -7 0 -7 -7z"/>
 <path d="M1475 1519 c-4 -6 -5 -12 -2 -15 2 -3 7 2 10 11 7 17 1 20 -8 4z"/>
 <path d="M1480 1480 c0 -7 3 -10 7 -7 3 4 3 10 0 14 -4 3 -7 0 -7 -7z"/>
 <path d="M1518 1421 c29 -28 82 -45 67 -21 -3 5 -12 7 -20 3 -11 -4 -14 0 -9 13 5 16 4 16 -5 4 -7 -9 -14 -11 -18 -5 -5 6 -17 16 -28 24 -11 7 -5 0 13 -18z"/>
 <path d="M1900 1400 c0 -7 3 -10 7 -7 3 4 3 10 0 14 -4 3 -7 0 -7 -7z"/>
 <path d="M1590 1366 c0 -2 7 -9 15 -16 13 -11 14 -10 9 4 -5 14 -24 23 -24 12z"/>
 <path d="M1850 1330 c-12 -16 -19 -30 -16 -30 2 0 14 14 26 30 12 17 19 30 16 30 -2 0 -14 -13 -26 -30z"/>
 <path d="M1655 1320 c-3 -5 1 -10 10 -10 9 0 13 5 10 10 -3 6 -8 10 -10 10 -2 0 -7 -4 -10 -10z"/>
 <path d="M1776 1291 c-4 -5 3 -7 14 -4 23 6 26 13 6 13 -8 0 -17 -4 -20 -9z"/>
 <path d="M1820 1286 c0 -2 7 -7 16 -10 8 -3 12 -2 9 4 -6 10 -25 14 -25 6z"/>
 <path d="M1778 1263 c7 -3 16 -2 19 1 4 3 -2 6 -13 5 -11 0 -14 -3 -6 -6z"/>
 <path d="M2071 2507 c-8 -10 -7 -14 4 -14 8 0 15 6 15 14 0 7 -2 13 -4 13 -2 0 -9 -6 -15 -13z"/>
 <path d="M1970 2360 c0 -5 5 -10 11 -10 5 0 7 5 4 10 -3 6 -8 10 -11 10 -2 0 -4 -4 -4 -10z"/>
 <path d="M1982 1701 c-11 -7 -11 -9 0 -14 9 -3 15 1 15 9 0 8 -1 14 -1 14 -1 0 -7 -4 -14 -9z"/>
 <path d="M2010 1680 c0 -7 3 -10 7 -7 3 4 3 10 0 14 -4 3 -7 0 -7 -7z"/>
 <path d="M2037 1669 c4 -13 8 -18 11 -10 2 7 -1 18 -6 23 -8 8 -9 4 -5 -13z"/>
 <path d="M2020 1650 c0 -7 3 -10 7 -7 3 4 3 10 0 14 -4 3 -7 0 -7 -7z"/>
 <path d="M2027 1601 c-4 -17 -3 -21 5 -13 5 5 8 16 6 23 -3 8 -7 3 -11 -10z"/>
 <path d="M2055 1590 c-4 -17 -5 -34 -2 -36 2 -3 7 10 11 27 3 18 4 34 2 36 -2 3 -7 -10 -11 -27z"/>
 <path d="M2018 1552 c3 -9 1 -13 -5 -9 -6 4 -8 -4 -5 -21 l5 -27 8 27 c4 14 9 31 12 36 4 5 0 9 -7 9 -8 0 -12 -7 -8 -15z"/>
 <path d="M1950 1450 c0 -7 3 -10 7 -7 3 4 3 10 0 14 -4 3 -7 0 -7 -7z"/>
 </g>
<g id="layer105" fill="#ffffff" stroke="none">
 <path d="M0 2250 l0 -2250 2250 0 2250 0 0 2250 0 2250 -2250 0 -2250 0 0 -2250z m2783 996 c58 -24 228 -148 248 -180 36 -60 27 -104 -48 -213 -116 -172 -145 -205 -187 -219 -57 -20 -99 -6 -206 70 l-95 68 -62 -5 c-113 -8 -122 -17 -350 -342 -113 -159 -218 -312 -234 -340 -34 -58 -38 -125 -14 -196 14 -39 27 -52 112 -108 108 -73 133 -105 133 -172 0 -42 -8 -58 -86 -170 -101 -144 -119 -166 -158 -186 -48 -25 -96 -11 -192 54 -135 91 -161 117 -179 175 -76 256 131 788 473 1215 299 374 677 620 845 549z"/>
 <path d="M2617 3166 c-177 -63 -418 -261 -622 -511 -221 -271 -410 -644 -460 -908 -25 -131 -16 -257 20 -287 11 -9 21 -1 55 47 164 230 198 283 190 288 -18 11 -50 137 -50 194 0 33 8 73 19 97 19 41 424 627 465 672 11 13 44 36 71 50 42 21 66 26 145 29 l94 3 80 112 c144 207 151 218 135 229 -24 15 -70 10 -142 -15z"/>
 <path d="M2769 3038 c-149 -214 -169 -243 -169 -249 0 -16 125 -92 152 -92 37 0 48 12 147 157 78 116 88 137 75 170 -5 13 -125 106 -137 106 -2 0 -33 -41 -68 -92z"/>
 <path d="M1750 1583 c-63 -91 -116 -169 -118 -173 -1 -4 29 -29 67 -55 55 -38 75 -46 96 -41 31 8 32 10 135 156 105 149 105 163 5 235 -35 25 -65 45 -67 45 -2 -1 -55 -76 -118 -167z"/>
 </g>

</svg>